<svg width="24" height="24" viewBox="0 0 24 24" fill="none" xmlns="http://www.w3.org/2000/svg" xmlns:xlink="http://www.w3.org/1999/xlink">
<path d="M17.687,5.014C15.495,6.889 11.82,6.791 11.82,6.791C11.82,6.791 11.703,3.652 13.902,1.777C16.094,-0.098 19.769,0 19.769,0C19.769,0 19.886,3.14 17.687,5.014Z" fill="#184F78"/>
<path d="M18.813,0.813C18.813,0.813 18.51,1.197 17.99,1.725C17.477,2.252 16.754,2.929 16,3.577C15.247,4.224 14.454,4.834 13.832,5.278C13.219,5.723 12.768,5.979 12.768,5.979C12.768,5.979 13.071,5.595 13.592,5.068C14.104,4.541 14.827,3.863 15.581,3.215C16.335,2.568 17.127,1.958 17.749,1.521C18.363,1.077 18.813,0.821 18.813,0.821L18.813,0.813Z" fill="#467293"/>
<path d="M11.82,6.671C3.296,4.54 -0.605,9.992 0.972,15.925C2.208,20.593 6.52,24.817 11.82,23.515C17.127,24.817 21.432,20.593 22.668,15.925C24.237,9.992 20.344,4.54 11.82,6.671Z" fill="#FC611F"/>
<g opacity="0.3">
<path d="M7.049,23.198C7.002,22.731 6.979,22.249 6.979,21.767C6.979,14.81 11.439,8.87 17.741,6.468C16.125,6.069 14.151,6.084 11.827,6.663C3.303,4.533 -0.598,9.984 0.98,15.917C1.819,19.072 4.057,22.016 7.056,23.198L7.049,23.198Z" fill="#FFFFFF"/>
</g>
</svg>
