<svg width="224" height="424" viewBox="0 0 224 424" fill="none" xmlns="http://www.w3.org/2000/svg" xmlns:xlink="http://www.w3.org/1999/xlink">
<path d="M81.373,162.484C81.373,212.763 113.945,221.738 148.33,221.738C182.716,221.738 215.288,213.193 215.288,162.914C215.288,112.636 173.33,74.006 147.582,71.724C122.77,69.518 81.354,112.187 81.354,162.466Z" fill="#B0D49B"/>
<path d="M92.798,173.834C92.798,211.137 116.956,217.793 142.46,217.793C167.964,217.793 192.121,211.455 192.121,174.171C192.121,136.887 161.008,108.223 141.917,106.541C123.519,104.914 92.798,136.551 92.798,173.853Z" fill="#9CCB8C"/>
<path d="M167.141,146.555C161.457,146.555 161.457,155.361 167.141,155.361C172.825,155.361 172.825,146.555 167.141,146.555Z" fill="#C7E1BC"/>
<path d="M115.983,150.031C114.487,150.069 112.973,150.087 111.477,150.087C110.991,150.087 110.505,150.087 110,150.087L110,155.79C110.58,156.089 111.253,156.258 112.057,156.258C115.703,156.258 117.012,152.649 115.983,150.031Z" fill="#C7E1BC"/>
<path d="M114.712,193.691C109.028,193.691 109.028,202.498 114.712,202.498C120.397,202.498 120.397,193.691 114.712,193.691Z" fill="#C7E1BC"/>
<path d="M187.447,197.786C186.157,200.366 184.642,202.629 182.922,204.63C183.221,204.686 183.539,204.723 183.894,204.723C187.877,204.723 189.073,200.385 187.465,197.805Z" fill="#D3E6C6"/>
<path d="M183.874,195.898C178.527,195.898 178.209,203.677 182.902,204.612C184.622,202.63 186.156,200.367 187.427,197.787C186.754,196.684 185.557,195.898 183.856,195.898Z" fill="#C7E1BC"/>
<path d="M187.838,124.528C182.154,124.528 182.154,133.335 187.838,133.335C193.522,133.335 193.522,124.528 187.838,124.528Z" fill="#D3E6C6"/>
<path d="M189.167,101.193C186.325,101.193 186.325,105.606 189.167,105.606C192.009,105.606 192.009,101.193 189.167,101.193Z" fill="#D3E6C6"/>
<path d="M202.816,143.487C199.974,143.487 199.974,147.9 202.816,147.9C205.658,147.9 205.658,143.487 202.816,143.487Z" fill="#D3E6C6"/>
<path d="M185.204,163.308C182.362,163.308 182.362,167.72 185.204,167.72C188.046,167.72 188.046,163.308 185.204,163.308Z" fill="#C7E1BC"/>
<path d="M133.203,153.173C130.361,153.173 130.361,157.586 133.203,157.586C136.045,157.586 136.045,153.173 133.203,153.173Z" fill="#C7E1BC"/>
<path d="M97.528,176.527C94.686,176.527 94.686,180.94 97.528,180.94C100.37,180.94 100.37,176.527 97.528,176.527Z" fill="#C7E1BC"/>
<path d="M159.643,176.527C156.801,176.527 156.801,180.94 159.643,180.94C162.485,180.94 162.485,176.527 159.643,176.527Z" fill="#C7E1BC"/>
<path d="M174.621,194.57C171.779,194.57 171.779,198.983 174.621,198.983C177.463,198.983 177.463,194.57 174.621,194.57Z" fill="#C7E1BC"/>
<path d="M206.781,182.248C203.939,182.248 203.939,186.661 206.781,186.661C209.623,186.661 209.623,182.248 206.781,182.248Z" fill="#D3E6C6"/>
<path d="M161.4,210.875C158.558,210.875 158.558,215.288 161.4,215.288C164.242,215.288 164.242,210.875 161.4,210.875Z" fill="#C7E1BC"/>
<path d="M135.523,217.606C135.785,217.943 136.14,218.186 136.608,218.317L136.608,217.681C136.253,217.681 135.879,217.644 135.523,217.625Z" fill="#D3E6C6"/>
<path d="M136.606,214.034C134.998,214.427 134.624,216.465 135.522,217.605C135.877,217.624 136.251,217.643 136.606,217.662L136.606,214.034Z" fill="#C7E1BC"/>
<path d="M105.606,169.347C104.334,170.169 104.334,172.301 105.606,173.105L105.606,169.347Z" fill="#C7E1BC"/>
<path d="M190.046,147.881C187.204,147.881 187.204,152.294 190.046,152.294C192.888,152.294 192.888,147.881 190.046,147.881Z" fill="#D3E6C6"/>
<path d="M44.52,90.834C44.52,141.113 77.091,150.088 111.477,150.088C145.862,150.088 178.434,141.543 178.434,91.264C178.434,40.985 136.495,2.374 110.748,0.074C85.936,-2.132 44.52,40.536 44.52,90.815Z" fill="#CCCF7A"/>
<path d="M55.944,102.165C55.944,139.467 80.102,146.123 105.606,146.123C131.11,146.123 155.268,139.785 155.268,102.501C155.268,65.217 124.155,36.553 105.064,34.871C86.665,33.244 55.944,64.881 55.944,102.183Z" fill="#BABA68"/>
<path d="M132.922,15.426C127.238,15.426 127.238,24.233 132.922,24.233C138.606,24.233 138.606,15.426 132.922,15.426Z" fill="#E3E5B0"/>
<path d="M101.193,29.094C97.304,29.094 96.088,33.207 97.509,35.806C99.66,35.152 101.716,34.815 103.661,34.815C104.128,34.815 104.596,34.834 105.063,34.871C105.138,34.871 105.194,34.871 105.269,34.89C105.998,32.328 104.652,29.094 101.211,29.094Z" fill="#E3E5B0"/>
<path d="M103.662,34.796C101.718,34.796 99.642,35.132 97.511,35.806C98.165,37.021 99.399,37.9 101.194,37.9C103.419,37.9 104.784,36.535 105.252,34.889C105.177,34.889 105.121,34.889 105.046,34.871C104.597,34.833 104.13,34.815 103.662,34.815Z" fill="#D9D9A3"/>
<path d="M130.267,74.903C124.583,74.903 124.583,83.71 130.267,83.71C135.951,83.71 135.951,74.903 130.267,74.903Z" fill="#D9D9A3"/>
<path d="M75.205,75.782C69.52,75.782 69.52,84.589 75.205,84.589C80.889,84.589 80.889,75.782 75.205,75.782Z" fill="#D9D9A3"/>
<path d="M79.11,122.21C79.97,124.435 80.718,126.754 81.317,129.128C82.869,126.847 82.139,123.033 79.11,122.21Z" fill="#D9D9A3"/>
<path d="M150.574,126.117C149.284,128.698 147.769,130.979 146.03,132.961C146.329,133.017 146.647,133.054 147.003,133.054C150.985,133.054 152.182,128.716 150.574,126.136Z" fill="#E3E5B0"/>
<path d="M147.022,124.247C141.693,124.247 141.357,132.025 146.05,132.96C147.77,130.978 149.303,128.716 150.575,126.136C149.902,125.032 148.705,124.247 147.003,124.247Z" fill="#D9D9A3"/>
<path d="M76.98,49.344C73.652,49.344 72.268,52.373 72.848,54.878C74.363,52.934 75.952,51.101 77.579,49.381C77.392,49.362 77.186,49.344 76.999,49.344Z" fill="#E3E5B0"/>
<path d="M77.56,49.38C75.933,51.081 74.362,52.933 72.829,54.877C73.24,56.653 74.605,58.168 76.961,58.168C82.44,58.168 82.627,49.978 77.56,49.399Z" fill="#D9D9A3"/>
<path d="M150.985,52.877C145.301,52.877 145.301,61.684 150.985,61.684C156.669,61.684 156.669,52.877 150.985,52.877Z" fill="#E3E5B0"/>
<path d="M110.448,15.874C107.606,15.874 107.606,20.287 110.448,20.287C113.29,20.287 113.29,15.874 110.448,15.874Z" fill="#E3E5B0"/>
<path d="M128.511,35.693C125.669,35.693 125.669,40.106 128.511,40.106C131.354,40.106 131.354,35.693 128.511,35.693Z" fill="#E3E5B0"/>
<path d="M80.944,26.008C78.102,26.008 78.102,30.421 80.944,30.421C83.786,30.421 83.786,26.008 80.944,26.008Z" fill="#E3E5B0"/>
<path d="M111.328,57.271C108.486,57.271 108.486,61.684 111.328,61.684C114.17,61.684 114.17,57.271 111.328,57.271Z" fill="#D9D9A3"/>
<path d="M152.294,29.523C149.452,29.523 149.452,33.936 152.294,33.936C155.136,33.936 155.136,29.523 152.294,29.523Z" fill="#E3E5B0"/>
<path d="M165.963,71.817C163.121,71.817 163.121,76.23 165.963,76.23C168.805,76.23 168.805,71.817 165.963,71.817Z" fill="#E3E5B0"/>
<path d="M148.332,91.638C145.49,91.638 145.49,96.05 148.332,96.05C151.174,96.05 151.174,91.638 148.332,91.638Z" fill="#D9D9A3"/>
<path d="M96.349,81.504C93.507,81.504 93.507,85.917 96.349,85.917C99.191,85.917 99.191,81.504 96.349,81.504Z" fill="#D9D9A3"/>
<path d="M53.625,69.612C50.783,69.612 50.783,74.025 53.625,74.025C56.467,74.025 56.467,69.612 53.625,69.612Z" fill="#E3E5B0"/>
<path d="M106.055,3.104C103.213,3.104 103.213,7.516 106.055,7.516C108.897,7.516 108.897,3.104 106.055,3.104Z" fill="#E3E5B0"/>
<path d="M122.79,104.858C119.948,104.858 119.948,109.271 122.79,109.271C125.632,109.271 125.632,104.858 122.79,104.858Z" fill="#D9D9A3"/>
<path d="M137.766,122.919C134.924,122.919 134.924,127.332 137.766,127.332C140.608,127.332 140.608,122.919 137.766,122.919Z" fill="#D9D9A3"/>
<path d="M169.927,110.58C167.085,110.58 167.085,114.993 169.927,114.993C172.77,114.993 172.77,110.58 169.927,110.58Z" fill="#E3E5B0"/>
<path d="M124.547,139.225C121.705,139.225 121.705,143.637 124.547,143.637C127.389,143.637 127.389,139.225 124.547,139.225Z" fill="#D9D9A3"/>
<path d="M98.649,145.938C99.005,146.386 99.547,146.704 100.314,146.704C100.987,146.704 101.51,146.461 101.865,146.068C100.781,146.031 99.715,145.994 98.649,145.938Z" fill="#E3E5B0"/>
<path d="M100.315,142.31C98.22,142.31 97.678,144.684 98.651,145.956C99.716,146.012 100.782,146.068 101.867,146.087C102.988,144.871 102.484,142.31 100.315,142.31Z" fill="#D9D9A3"/>
<path d="M69.93,97.359C67.088,97.359 67.088,101.772 69.93,101.772C72.772,101.772 72.772,97.359 69.93,97.359Z" fill="#D9D9A3"/>
<path d="M98.107,61.254C95.265,61.254 95.265,65.667 98.107,65.667C100.949,65.667 100.949,61.254 98.107,61.254Z" fill="#D9D9A3"/>
<path d="M153.192,76.231C150.35,76.231 150.35,80.644 153.192,80.644C156.034,80.644 156.034,76.231 153.192,76.231Z" fill="#E3E5B0"/>
<path d="M0,142.834C0,174.022 20.212,179.594 41.547,179.594C62.881,179.594 83.094,174.302 83.094,143.095C83.094,111.888 57.066,87.936 41.098,86.515C25.71,85.15 0.019,111.627 0.019,142.815Z" fill="#1C968A"/>
<path d="M7.086,149.883C7.086,173.012 22.082,177.163 37.9,177.163C53.719,177.163 68.714,173.236 68.714,150.088C68.714,126.94 49.418,109.177 37.564,108.13C26.139,107.12 7.086,126.753 7.086,149.883Z" fill="#098A78"/>
<path d="M54.841,96.069C51.326,96.069 51.326,101.529 54.841,101.529C58.357,101.529 58.357,96.069 54.841,96.069Z" fill="#5ABDB7"/>
<path d="M35.17,104.539C32.758,104.539 31.991,107.082 32.889,108.709C34.216,108.297 35.507,108.092 36.703,108.092C37.002,108.092 37.283,108.092 37.563,108.129C37.601,108.129 37.657,108.129 37.694,108.129C38.143,106.54 37.32,104.539 35.17,104.539Z" fill="#5ABDB7"/>
<path d="M36.703,108.093C35.488,108.093 34.216,108.298 32.889,108.71C33.3,109.458 34.067,110 35.17,110C36.553,110 37.395,109.159 37.694,108.13C37.657,108.13 37.601,108.13 37.563,108.13C37.283,108.111 36.984,108.093 36.703,108.093Z" fill="#2CB4AA"/>
<path d="M53.195,132.961C49.661,132.961 49.661,138.421 53.195,138.421C56.729,138.421 56.711,132.961 53.195,132.961Z" fill="#2CB4AA"/>
<path d="M19.033,133.503C15.518,133.503 15.518,138.963 19.033,138.963C22.548,138.963 22.567,133.503 19.033,133.503Z" fill="#2CB4AA"/>
<path d="M20.68,162.204C17.146,162.204 17.146,167.664 20.68,167.664C24.214,167.664 24.214,162.204 20.68,162.204Z" fill="#2CB4AA"/>
<path d="M65.798,164.747C64.994,166.355 64.059,167.757 62.993,168.991C63.18,169.029 63.386,169.048 63.591,169.048C66.06,169.048 66.808,166.355 65.798,164.747Z" fill="#5ABDB7"/>
<path d="M63.591,163.569C60.282,163.569 60.076,168.393 62.993,168.972C64.059,167.738 65.012,166.336 65.797,164.728C65.367,164.036 64.638,163.55 63.591,163.55Z" fill="#2CB4AA"/>
<path d="M20.138,117.105C18.081,117.105 17.221,118.975 17.576,120.527C18.53,119.312 19.502,118.171 20.512,117.124C20.399,117.124 20.268,117.105 20.156,117.105Z" fill="#5ABDB7"/>
<path d="M20.491,117.124C19.482,118.19 18.509,119.33 17.556,120.527C17.799,121.63 18.659,122.565 20.117,122.565C23.52,122.565 23.633,117.479 20.491,117.124Z" fill="#2CB4AA"/>
<path d="M66.041,119.292C62.507,119.292 62.507,124.77 66.041,124.77C69.575,124.77 69.556,119.292 66.041,119.292Z" fill="#5ABDB7"/>
<path d="M40.91,96.332C39.152,96.332 39.152,99.062 40.91,99.062C42.668,99.062 42.668,96.332 40.91,96.332Z" fill="#5ABDB7"/>
<path d="M52.111,108.635C50.354,108.635 50.354,111.365 52.111,111.365C53.869,111.365 53.869,108.635 52.111,108.635Z" fill="#5ABDB7"/>
<path d="M22.588,102.633C20.83,102.633 20.83,105.363 22.588,105.363C24.345,105.363 24.345,102.633 22.588,102.633Z" fill="#5ABDB7"/>
<path d="M41.453,122.021C39.695,122.021 39.695,124.751 41.453,124.751C43.211,124.751 43.211,122.021 41.453,122.021Z" fill="#2CB4AA"/>
<path d="M66.863,104.82C65.106,104.82 65.106,107.55 66.863,107.55C68.621,107.55 68.621,104.82 66.863,104.82Z" fill="#5ABDB7"/>
<path d="M75.334,131.054C73.576,131.054 73.576,133.784 75.334,133.784C77.091,133.784 77.091,131.054 75.334,131.054Z" fill="#5ABDB7"/>
<path d="M64.415,143.339C62.657,143.339 62.657,146.069 64.415,146.069C66.172,146.069 66.172,143.339 64.415,143.339Z" fill="#2CB4AA"/>
<path d="M32.16,137.055C30.402,137.055 30.402,139.785 32.16,139.785C33.918,139.785 33.918,137.055 32.16,137.055Z" fill="#2CB4AA"/>
<path d="M10.022,151.546C8.265,151.546 8.265,154.276 10.022,154.276C11.78,154.276 11.78,151.546 10.022,151.546Z" fill="#2CB4AA"/>
<path d="M5.647,129.688C3.89,129.688 3.89,132.418 5.647,132.418C7.405,132.418 7.405,129.688 5.647,129.688Z" fill="#5ABDB7"/>
<path d="M38.163,88.422C36.405,88.422 36.405,91.152 38.163,91.152C39.921,91.152 39.921,88.422 38.163,88.422Z" fill="#5ABDB7"/>
<path d="M48.557,151.546C46.8,151.546 46.8,154.276 48.557,154.276C50.315,154.276 50.315,151.546 48.557,151.546Z" fill="#2CB4AA"/>
<path d="M57.852,162.746C56.095,162.746 56.095,165.476 57.852,165.476C59.61,165.476 59.61,162.746 57.852,162.746Z" fill="#2CB4AA"/>
<path d="M77.802,155.099C76.044,155.099 76.044,157.829 77.802,157.829C79.559,157.829 79.559,155.099 77.802,155.099Z" fill="#5ABDB7"/>
<path d="M49.642,172.861C47.885,172.861 47.885,175.591 49.642,175.591C51.4,175.591 51.4,172.861 49.642,172.861Z" fill="#2CB4AA"/>
<path d="M33.582,177.031C33.806,177.312 34.143,177.499 34.61,177.499C34.723,177.499 34.816,177.499 34.91,177.461L34.91,177.087C34.461,177.087 34.012,177.05 33.582,177.031Z" fill="#5ABDB7"/>
<path d="M34.61,174.77C33.32,174.77 32.965,176.247 33.582,177.032C34.031,177.051 34.479,177.07 34.91,177.088L34.91,174.788C34.816,174.77 34.723,174.751 34.61,174.751Z" fill="#2CB4AA"/>
<path d="M15.762,146.891C14.004,146.891 14.004,149.621 15.762,149.621C17.519,149.621 17.519,146.891 15.762,146.891Z" fill="#2CB4AA"/>
<path d="M33.246,124.491C31.488,124.491 31.488,127.221 33.246,127.221C35.004,127.221 35.004,124.491 33.246,124.491Z" fill="#2CB4AA"/>
<path d="M67.406,133.783C65.648,133.783 65.648,136.513 67.406,136.513C69.164,136.513 69.164,133.783 67.406,133.783Z" fill="#5ABDB7"/>
<path d="M34.927,423.452L34.927,149.358C34.927,147.433 37.9,147.433 37.9,149.358L37.9,423.452L34.927,423.452Z" fill="#676150"/>
<path d="M26.513,154.313C30.234,162.597 33.955,170.88 37.676,179.163C38.461,180.902 35.9,182.416 35.096,180.659C31.375,172.376 27.654,164.092 23.933,155.809C23.148,154.07 25.709,152.556 26.513,154.313Z" fill="#676150"/>
<path d="M64.881,170.413C55.738,181.613 46.595,192.794 37.451,203.994C36.236,205.49 34.142,203.358 35.339,201.881C44.482,190.681 53.625,179.5 62.768,168.3C63.984,166.804 66.078,168.935 64.881,170.394Z" fill="#676150"/>
<path d="M136.605,423.452L136.605,149.358C136.605,147.433 139.578,147.433 139.578,149.358L139.578,423.452L136.605,423.452Z" fill="#676150"/>
<path d="M128.194,154.313C131.915,162.597 135.636,170.88 139.356,179.163C140.142,180.902 137.562,182.416 136.795,180.659C133.074,172.376 129.353,164.092 125.632,155.809C124.847,154.07 127.409,152.556 128.194,154.313Z" fill="#676150"/>
<path d="M166.579,170.413C157.436,181.613 148.293,192.794 139.15,203.994C137.934,205.49 135.84,203.358 137.037,201.881C146.18,190.681 155.323,179.5 164.467,168.3C165.682,166.804 167.776,168.935 166.579,170.394Z" fill="#676150"/>
<path d="M105.607,423.452L105.607,97.359C105.607,94.517 110.02,94.517 110.02,97.359L110.02,423.452L105.607,423.452Z" fill="#676150"/>
<path d="M135.205,98.482C126.697,116.395 118.208,134.326 109.719,152.239C108.504,154.8 104.708,152.575 105.923,150.014C114.412,132.101 122.92,114.17 131.409,96.257C132.624,93.695 136.42,95.92 135.205,98.482Z" fill="#676150"/>
<path d="M96.874,106.054C100.558,110.784 104.26,115.534 107.944,120.264C109.664,122.471 106.579,125.612 104.84,123.387C101.156,118.656 97.454,113.907 93.771,109.176C92.05,106.97 95.136,103.81 96.893,106.054Z" fill="#676150"/>
<path d="M69.761,296.735C69.761,319.528 86.271,323.604 103.698,323.604C121.124,323.604 137.634,319.734 137.634,296.941C137.634,274.148 116.375,256.628 103.324,255.6C90.74,254.609 69.761,273.943 69.761,296.754Z" fill="#B0D49B"/>
<path d="M75.56,301.877C75.56,318.78 87.807,321.809 100.727,321.809C113.647,321.809 125.895,318.93 125.895,302.027C125.895,285.124 110.132,272.129 100.447,271.362C91.116,270.614 75.541,284.974 75.541,301.877Z" fill="#9CCB8C"/>
<path d="M113.236,289.519C110.356,289.519 110.356,293.52 113.236,293.52C116.115,293.52 116.115,289.519 113.236,289.519Z" fill="#C7E1BC"/>
<path d="M87.301,291.089C86.534,291.089 85.786,291.108 85.019,291.108C84.458,291.108 83.879,291.108 83.318,291.108C82.813,292.286 83.467,293.912 85.319,293.912C87.17,293.912 87.824,292.267 87.301,291.089Z" fill="#C7E1BC"/>
<path d="M86.665,310.891C83.785,310.891 83.785,314.892 86.665,314.892C89.544,314.892 89.544,310.891 86.665,310.891Z" fill="#C7E1BC"/>
<path d="M123.519,312.741C122.864,313.919 122.098,314.948 121.219,315.845C121.368,315.864 121.537,315.882 121.705,315.882C123.724,315.882 124.323,313.919 123.519,312.741Z" fill="#D3E6C6"/>
<path d="M121.724,311.881C119.013,311.881 118.863,315.415 121.238,315.826C122.117,314.929 122.883,313.9 123.538,312.722C123.201,312.218 122.584,311.862 121.724,311.862Z" fill="#C7E1BC"/>
<path d="M123.724,279.534C120.845,279.534 120.845,283.536 123.724,283.536C126.604,283.536 126.604,279.534 123.724,279.534Z" fill="#D3E6C6"/>
<path d="M124.396,268.951C122.956,268.951 122.956,270.952 124.396,270.952C125.836,270.952 125.836,268.951 124.396,268.951Z" fill="#D3E6C6"/>
<path d="M131.315,288.116C129.875,288.116 129.875,290.117 131.315,290.117C132.755,290.117 132.755,288.116 131.315,288.116Z" fill="#D3E6C6"/>
<path d="M122.377,297.11C120.937,297.11 120.937,299.111 122.377,299.111C123.816,299.111 123.816,297.11 122.377,297.11Z" fill="#C7E1BC"/>
<path d="M96.032,292.511C94.592,292.511 94.592,294.511 96.032,294.511C97.472,294.511 97.472,292.511 96.032,292.511Z" fill="#C7E1BC"/>
<path d="M77.951,303.094C76.511,303.094 76.511,305.094 77.951,305.094C79.391,305.094 79.391,303.094 77.951,303.094Z" fill="#C7E1BC"/>
<path d="M109.439,303.094C107.999,303.094 107.999,305.094 109.439,305.094C110.879,305.094 110.879,303.094 109.439,303.094Z" fill="#C7E1BC"/>
<path d="M117.031,311.283C115.591,311.283 115.591,313.284 117.031,313.284C118.471,313.284 118.471,311.283 117.031,311.283Z" fill="#C7E1BC"/>
<path d="M133.335,305.691C131.895,305.691 131.895,307.692 133.335,307.692C134.774,307.692 134.774,305.691 133.335,305.691Z" fill="#D3E6C6"/>
<path d="M110.338,318.668C108.898,318.668 108.898,320.669 110.338,320.669C111.777,320.669 111.777,318.668 110.338,318.668Z" fill="#C7E1BC"/>
<path d="M97.21,321.717C97.397,321.922 97.677,322.072 98.051,322.072C98.388,322.072 98.65,321.96 98.837,321.792C98.294,321.792 97.752,321.754 97.21,321.736Z" fill="#D3E6C6"/>
<path d="M98.052,320.07C96.986,320.07 96.705,321.155 97.21,321.716C97.752,321.735 98.295,321.753 98.837,321.772C99.417,321.211 99.155,320.052 98.052,320.052Z" fill="#C7E1BC"/>
<path d="M82.644,299.709C81.205,299.709 81.205,301.71 82.644,301.71C84.084,301.71 84.084,299.709 82.644,299.709Z" fill="#C7E1BC"/>
<path d="M124.845,290.117C123.406,290.117 123.406,292.118 124.845,292.118C126.285,292.118 126.285,290.117 124.845,290.117Z" fill="#D3E6C6"/>
<path d="M51.083,264.239C51.083,287.032 67.593,291.108 85.02,291.108C102.446,291.108 118.957,287.238 118.957,264.445C118.957,241.652 97.697,224.132 84.646,223.104C72.062,222.113 51.083,241.447 51.083,264.239Z" fill="#CCCF7A"/>
<path d="M56.861,269.381C56.861,286.284 69.109,289.313 82.029,289.313C94.949,289.313 107.196,286.433 107.196,269.53C107.196,252.628 91.434,239.632 81.748,238.866C72.418,238.118 56.843,252.478 56.843,269.381Z" fill="#BABA68"/>
<path d="M95.883,230.059C93.004,230.059 93.004,234.06 95.883,234.06C98.763,234.06 98.763,230.059 95.883,230.059Z" fill="#E3E5B0"/>
<path d="M79.802,236.248C77.839,236.248 77.203,238.118 77.933,239.296C79.017,238.997 80.064,238.847 81.055,238.847C81.298,238.847 81.523,238.847 81.766,238.866C81.803,238.866 81.84,238.866 81.878,238.866C82.252,237.707 81.56,236.229 79.821,236.229Z" fill="#E3E5B0"/>
<path d="M81.055,238.847C80.064,238.847 79.017,238.996 77.933,239.295C78.269,239.838 78.886,240.249 79.802,240.249C80.924,240.249 81.616,239.632 81.859,238.884C81.822,238.884 81.784,238.884 81.747,238.884C81.523,238.865 81.28,238.847 81.036,238.847Z" fill="#D9D9A3"/>
<path d="M94.556,257.021C91.677,257.021 91.677,261.023 94.556,261.023C97.436,261.023 97.436,257.021 94.556,257.021Z" fill="#D9D9A3"/>
<path d="M66.64,257.414C63.761,257.414 63.761,261.415 66.64,261.415C69.52,261.415 69.52,257.414 66.64,257.414Z" fill="#D9D9A3"/>
<path d="M68.622,278.468C69.052,279.477 69.426,280.525 69.744,281.609C70.529,280.581 70.155,278.842 68.622,278.468Z" fill="#D9D9A3"/>
<path d="M104.839,280.244C104.185,281.422 103.418,282.45 102.539,283.348C102.689,283.367 102.857,283.385 103.025,283.385C105.045,283.385 105.643,281.422 104.839,280.244Z" fill="#E3E5B0"/>
<path d="M103.026,279.385C100.315,279.385 100.165,282.919 102.54,283.349C103.419,282.451 104.185,281.423 104.84,280.245C104.484,279.74 103.886,279.385 103.026,279.385Z" fill="#D9D9A3"/>
<path d="M67.539,245.448C65.856,245.448 65.145,246.813 65.445,247.954C66.211,247.075 67.015,246.234 67.838,245.467C67.744,245.467 67.632,245.467 67.539,245.467Z" fill="#E3E5B0"/>
<path d="M67.818,245.448C66.995,246.215 66.191,247.056 65.425,247.935C65.63,248.739 66.322,249.431 67.519,249.431C70.305,249.431 70.398,245.71 67.818,245.448Z" fill="#D9D9A3"/>
<path d="M105.045,247.037C102.166,247.037 102.166,251.038 105.045,251.038C107.925,251.038 107.925,247.037 105.045,247.037Z" fill="#E3E5B0"/>
<path d="M84.495,230.265C83.055,230.265 83.055,232.265 84.495,232.265C85.935,232.265 85.935,230.265 84.495,230.265Z" fill="#E3E5B0"/>
<path d="M93.658,239.239C92.218,239.239 92.218,241.24 93.658,241.24C95.098,241.24 95.098,239.239 93.658,239.239Z" fill="#E3E5B0"/>
<path d="M69.538,234.847C68.098,234.847 68.098,236.847 69.538,236.847C70.978,236.847 70.978,234.847 69.538,234.847Z" fill="#E3E5B0"/>
<path d="M84.944,249.038C83.504,249.038 83.504,251.039 84.944,251.039C86.384,251.039 86.384,249.038 84.944,249.038Z" fill="#D9D9A3"/>
<path d="M105.718,236.454C104.279,236.454 104.279,238.455 105.718,238.455C107.158,238.455 107.158,236.454 105.718,236.454Z" fill="#E3E5B0"/>
<path d="M112.635,255.619C111.196,255.619 111.196,257.62 112.635,257.62C114.075,257.62 114.075,255.619 112.635,255.619Z" fill="#E3E5B0"/>
<path d="M103.699,264.613C102.259,264.613 102.259,266.614 103.699,266.614C105.139,266.614 105.139,264.613 103.699,264.613Z" fill="#D9D9A3"/>
<path d="M77.353,260.014C75.914,260.014 75.914,262.014 77.353,262.014C78.793,262.014 78.793,260.014 77.353,260.014Z" fill="#D9D9A3"/>
<path d="M55.703,254.628C54.263,254.628 54.263,256.629 55.703,256.629C57.143,256.629 57.143,254.628 55.703,254.628Z" fill="#E3E5B0"/>
<path d="M82.272,224.469C80.832,224.469 80.832,226.469 82.272,226.469C83.712,226.469 83.712,224.469 82.272,224.469Z" fill="#E3E5B0"/>
<path d="M90.76,270.615C89.321,270.615 89.321,272.616 90.76,272.616C92.2,272.616 92.2,270.615 90.76,270.615Z" fill="#D9D9A3"/>
<path d="M98.351,278.786C96.912,278.786 96.912,280.787 98.351,280.787C99.791,280.787 99.791,278.786 98.351,278.786Z" fill="#D9D9A3"/>
<path d="M114.636,273.195C113.197,273.195 113.197,275.196 114.636,275.196C116.076,275.196 116.076,273.195 114.636,273.195Z" fill="#E3E5B0"/>
<path d="M91.639,286.19C90.2,286.19 90.2,288.191 91.639,288.191C93.079,288.191 93.079,286.19 91.639,286.19Z" fill="#D9D9A3"/>
<path d="M78.514,289.238C78.701,289.444 78.981,289.594 79.355,289.594C79.692,289.594 79.953,289.481 80.14,289.313C79.598,289.313 79.056,289.276 78.514,289.257Z" fill="#E3E5B0"/>
<path d="M79.353,287.574C78.288,287.574 78.007,288.659 78.512,289.22C79.054,289.238 79.596,289.276 80.139,289.276C80.718,288.734 80.457,287.556 79.353,287.556Z" fill="#D9D9A3"/>
<path d="M63.946,267.212C62.506,267.212 62.506,269.213 63.946,269.213C65.386,269.213 65.386,267.212 63.946,267.212Z" fill="#D9D9A3"/>
<path d="M78.251,250.832C76.811,250.832 76.811,252.833 78.251,252.833C79.69,252.833 79.69,250.832 78.251,250.832Z" fill="#D9D9A3"/>
<path d="M106.166,257.619C104.726,257.619 104.726,259.62 106.166,259.62C107.605,259.62 107.605,257.619 106.166,257.619Z" fill="#E3E5B0"/>
<path d="M28.515,287.835C28.515,301.971 38.761,304.514 49.569,304.514C60.376,304.514 70.622,302.121 70.622,287.966C70.622,273.812 57.422,262.967 49.326,262.313C41.529,261.696 28.496,273.7 28.496,287.835Z" fill="#1C968A"/>
<path d="M32.104,291.014C32.104,301.503 39.695,303.373 47.716,303.373C55.738,303.373 63.329,301.597 63.329,291.107C63.329,280.618 53.55,272.559 47.548,272.073C41.752,271.624 32.104,280.524 32.104,291.014Z" fill="#098A78"/>
<path d="M56.319,266.613C54.524,266.613 54.524,269.1 56.319,269.1C58.114,269.1 58.095,266.613 56.319,266.613Z" fill="#5ABDB7"/>
<path d="M46.332,270.466C45.117,270.466 44.724,271.625 45.173,272.354C45.846,272.167 46.501,272.074 47.118,272.074C47.267,272.074 47.417,272.074 47.548,272.074C47.566,272.074 47.585,272.074 47.622,272.074C47.847,271.363 47.435,270.447 46.351,270.447Z" fill="#5ABDB7"/>
<path d="M47.118,272.073C46.501,272.073 45.847,272.167 45.174,272.354C45.38,272.69 45.772,272.933 46.333,272.933C47.044,272.933 47.455,272.559 47.605,272.092C47.586,272.092 47.567,272.092 47.548,272.092C47.399,272.092 47.249,272.092 47.118,272.092Z" fill="#2CB4AA"/>
<path d="M55.477,283.349C53.682,283.349 53.682,285.835 55.477,285.835C57.272,285.835 57.253,283.349 55.477,283.349Z" fill="#2CB4AA"/>
<path d="M38.161,283.592C36.385,283.592 36.385,286.079 38.161,286.079C39.938,286.079 39.956,283.592 38.161,283.592Z" fill="#2CB4AA"/>
<path d="M38.985,296.604C37.19,296.604 37.19,299.091 38.985,299.091C40.78,299.091 40.78,296.604 38.985,296.604Z" fill="#2CB4AA"/>
<path d="M61.871,297.765C61.46,298.494 60.992,299.13 60.45,299.691C60.544,299.691 60.637,299.709 60.749,299.709C62.002,299.709 62.376,298.494 61.871,297.765Z" fill="#5ABDB7"/>
<path d="M60.748,297.222C59.066,297.222 58.972,299.409 60.449,299.671C60.991,299.11 61.478,298.474 61.87,297.745C61.646,297.427 61.291,297.222 60.748,297.222Z" fill="#2CB4AA"/>
<path d="M38.724,276.168C37.677,276.168 37.247,277.028 37.415,277.72C37.901,277.178 38.388,276.654 38.892,276.168C38.836,276.168 38.762,276.168 38.705,276.168Z" fill="#5ABDB7"/>
<path d="M38.892,276.168C38.387,276.654 37.883,277.159 37.396,277.72C37.527,278.225 37.957,278.655 38.705,278.655C40.426,278.655 40.482,276.355 38.892,276.187Z" fill="#2CB4AA"/>
<path d="M61.983,277.159C60.188,277.159 60.188,279.646 61.983,279.646C63.778,279.646 63.759,277.159 61.983,277.159Z" fill="#5ABDB7"/>
<path d="M49.25,266.745C48.353,266.745 48.353,267.979 49.25,267.979C50.148,267.979 50.148,266.745 49.25,266.745Z" fill="#5ABDB7"/>
<path d="M54.915,272.316C54.018,272.316 54.018,273.55 54.915,273.55C55.813,273.55 55.813,272.316 54.915,272.316Z" fill="#5ABDB7"/>
<path d="M39.956,269.586C39.059,269.586 39.059,270.82 39.956,270.82C40.854,270.82 40.854,269.586 39.956,269.586Z" fill="#5ABDB7"/>
<path d="M49.513,278.394C48.615,278.394 48.615,279.628 49.513,279.628C50.41,279.628 50.41,278.394 49.513,278.394Z" fill="#2CB4AA"/>
<path d="M62.412,270.577C61.515,270.577 61.515,271.811 62.412,271.811C63.31,271.811 63.31,270.577 62.412,270.577Z" fill="#5ABDB7"/>
<path d="M66.695,282.488C65.797,282.488 65.797,283.722 66.695,283.722C67.592,283.722 67.592,282.488 66.695,282.488Z" fill="#5ABDB7"/>
<path d="M61.16,288.061C60.263,288.061 60.263,289.295 61.16,289.295C62.058,289.295 62.058,288.061 61.16,288.061Z" fill="#2CB4AA"/>
<path d="M44.82,285.199C43.922,285.199 43.922,286.433 44.82,286.433C45.717,286.433 45.717,285.199 44.82,285.199Z" fill="#2CB4AA"/>
<path d="M33.58,291.781C32.683,291.781 32.683,293.015 33.58,293.015C34.478,293.015 34.478,291.781 33.58,291.781Z" fill="#2CB4AA"/>
<path d="M31.374,281.853C30.477,281.853 30.477,283.087 31.374,283.087C32.272,283.087 32.272,281.853 31.374,281.853Z" fill="#5ABDB7"/>
<path d="M47.867,263.154C46.97,263.154 46.97,264.388 47.867,264.388C48.765,264.388 48.765,263.154 47.867,263.154Z" fill="#5ABDB7"/>
<path d="M53.12,291.781C52.223,291.781 52.223,293.015 53.12,293.015C54.018,293.015 54.018,291.781 53.12,291.781Z" fill="#2CB4AA"/>
<path d="M57.833,296.848C56.936,296.848 56.936,298.082 57.833,298.082C58.731,298.082 58.731,296.848 57.833,296.848Z" fill="#2CB4AA"/>
<path d="M67.949,293.389C67.051,293.389 67.051,294.623 67.949,294.623C68.846,294.623 68.846,293.389 67.949,293.389Z" fill="#5ABDB7"/>
<path d="M53.681,301.447C52.783,301.447 52.783,302.681 53.681,302.681C54.578,302.681 54.578,301.447 53.681,301.447Z" fill="#2CB4AA"/>
<path d="M45.528,303.336C45.641,303.467 45.809,303.56 46.052,303.56C46.258,303.56 46.426,303.486 46.538,303.373C46.201,303.373 45.865,303.355 45.528,303.336Z" fill="#5ABDB7"/>
<path d="M46.054,302.308C45.399,302.308 45.212,302.981 45.53,303.336C45.867,303.336 46.203,303.355 46.54,303.373C46.895,303.037 46.727,302.308 46.054,302.308Z" fill="#2CB4AA"/>
<path d="M36.498,289.668C35.601,289.668 35.601,290.902 36.498,290.902C37.396,290.902 37.396,289.668 36.498,289.668Z" fill="#2CB4AA"/>
<path d="M45.361,279.515C44.463,279.515 44.463,280.749 45.361,280.749C46.258,280.749 46.258,279.515 45.361,279.515Z" fill="#2CB4AA"/>
<path d="M62.676,283.722C61.779,283.722 61.779,284.956 62.676,284.956C63.574,284.956 63.574,283.722 62.676,283.722Z" fill="#5ABDB7"/>
<path d="M46.221,415.056L46.221,290.79C46.221,289.911 47.735,289.911 47.735,290.79L47.735,415.056L46.221,415.056Z" fill="#676150"/>
<path d="M41.938,293.033C43.826,296.791 45.715,300.55 47.603,304.308C47.996,305.093 46.706,305.785 46.295,305C44.406,301.241 42.518,297.483 40.629,293.725C40.236,292.94 41.527,292.248 41.938,293.052Z" fill="#676150"/>
<path d="M61.404,300.326C56.767,305.393 52.13,310.479 47.511,315.546C46.894,316.219 45.829,315.266 46.446,314.593C51.083,309.525 55.72,304.44 60.338,299.373C60.955,298.699 62.021,299.653 61.404,300.326Z" fill="#676150"/>
<path d="M97.753,415.056L97.753,290.79C97.753,289.911 99.267,289.911 99.267,290.79L99.267,415.056L97.753,415.056Z" fill="#676150"/>
<path d="M93.49,293.033C95.378,296.791 97.267,300.55 99.137,304.308C99.529,305.093 98.239,305.785 97.828,305C95.939,301.241 94.051,297.483 92.181,293.725C91.788,292.94 93.078,292.248 93.49,293.052Z" fill="#676150"/>
<path d="M112.954,300.326C108.317,305.393 103.68,310.479 99.061,315.546C98.444,316.219 97.378,315.266 97.995,314.593C102.633,309.525 107.27,304.44 111.888,299.373C112.505,298.699 113.571,299.653 112.954,300.326Z" fill="#676150"/>
<path d="M82.046,415.057L82.046,267.213C82.046,265.923 84.271,265.923 84.271,267.213L84.271,415.057L82.046,415.057Z" fill="#676150"/>
<path d="M97.042,267.717C92.741,275.851 88.422,283.966 84.121,292.099C83.504,293.258 81.579,292.249 82.196,291.09C86.496,282.956 90.815,274.841 95.116,266.707C95.733,265.548 97.659,266.558 97.042,267.717Z" fill="#676150"/>
<path d="M77.613,271.158C79.483,273.308 81.353,275.458 83.223,277.608C84.102,278.618 82.531,280.039 81.652,279.029C79.782,276.879 77.913,274.729 76.043,272.597C75.164,271.588 76.735,270.167 77.632,271.176Z" fill="#676150"/>
<path d="M169.366,317.397C169.366,335.908 182.548,339.217 196.478,339.217C210.408,339.217 223.59,336.076 223.59,317.565C223.59,299.054 206.612,284.844 196.179,284.002C186.138,283.198 169.366,298.904 169.366,317.397Z" fill="#B0D49B"/>
<path d="M174.002,321.567C174.002,335.292 183.781,337.741 194.102,337.741C204.424,337.741 214.203,335.404 214.203,321.68C214.203,307.955 201.6,297.41 193.878,296.793C186.417,296.194 174.002,307.843 174.002,321.567Z" fill="#9CCB8C"/>
<path d="M204.088,311.526C201.788,311.526 201.788,314.761 204.088,314.761C206.388,314.761 206.388,311.526 204.088,311.526Z" fill="#C7E1BC"/>
<path d="M183.39,312.798C182.792,312.798 182.175,312.817 181.558,312.817C181.109,312.817 180.66,312.817 180.212,312.817C179.8,313.77 180.342,315.098 181.801,315.098C183.259,315.098 183.802,313.77 183.39,312.817Z" fill="#C7E1BC"/>
<path d="M182.866,328.878C180.567,328.878 180.567,332.113 182.866,332.113C185.166,332.113 185.166,328.878 182.866,328.878Z" fill="#C7E1BC"/>
<path d="M212.316,330.374C211.792,331.328 211.175,332.169 210.483,332.898C210.614,332.917 210.726,332.936 210.876,332.936C212.484,332.936 212.97,331.346 212.316,330.393Z" fill="#D3E6C6"/>
<path d="M210.856,329.682C208.687,329.682 208.556,332.542 210.464,332.898C211.155,332.168 211.772,331.327 212.296,330.373C212.015,329.962 211.529,329.682 210.856,329.682Z" fill="#C7E1BC"/>
<path d="M212.464,303.43C210.164,303.43 210.164,306.664 212.464,306.664C214.764,306.664 214.764,303.43 212.464,303.43Z" fill="#D3E6C6"/>
<path d="M213.007,294.829C211.848,294.829 211.848,296.456 213.007,296.456C214.166,296.456 214.148,294.829 213.007,294.829Z" fill="#D3E6C6"/>
<path d="M218.541,310.386C217.382,310.386 217.382,312.012 218.541,312.012C219.701,312.012 219.682,310.386 218.541,310.386Z" fill="#D3E6C6"/>
<path d="M211.399,317.697C210.239,317.697 210.239,319.324 211.399,319.324C212.558,319.324 212.539,317.697 211.399,317.697Z" fill="#C7E1BC"/>
<path d="M190.364,313.957C189.204,313.957 189.204,315.584 190.364,315.584C191.523,315.584 191.504,313.957 190.364,313.957Z" fill="#C7E1BC"/>
<path d="M175.911,322.558C174.752,322.558 174.752,324.184 175.911,324.184C177.071,324.184 177.052,322.558 175.911,322.558Z" fill="#C7E1BC"/>
<path d="M201.059,322.558C199.9,322.558 199.9,324.184 201.059,324.184C202.218,324.184 202.199,322.558 201.059,322.558Z" fill="#C7E1BC"/>
<path d="M207.117,329.195C205.957,329.195 205.957,330.822 207.117,330.822C208.276,330.822 208.257,329.195 207.117,329.195Z" fill="#C7E1BC"/>
<path d="M220.13,324.652C218.971,324.652 218.971,326.279 220.13,326.279C221.289,326.279 221.271,324.652 220.13,324.652Z" fill="#D3E6C6"/>
<path d="M201.771,335.198C200.612,335.198 200.612,336.825 201.771,336.825C202.93,336.825 202.911,335.198 201.771,335.198Z" fill="#C7E1BC"/>
<path d="M191.279,337.665C191.429,337.833 191.653,337.946 191.952,337.946C192.233,337.946 192.439,337.852 192.588,337.721C192.158,337.721 191.728,337.702 191.298,337.665Z" fill="#D3E6C6"/>
<path d="M191.954,336.339C191.113,336.339 190.888,337.218 191.281,337.685C191.711,337.704 192.141,337.723 192.571,337.741C193.02,337.292 192.814,336.358 191.954,336.358Z" fill="#C7E1BC"/>
<path d="M179.651,319.791C178.491,319.791 178.491,321.418 179.651,321.418C180.81,321.418 180.791,319.791 179.651,319.791Z" fill="#C7E1BC"/>
<path d="M213.361,312.013C212.201,312.013 212.201,313.639 213.361,313.639C214.52,313.639 214.501,312.013 213.361,312.013Z" fill="#D3E6C6"/>
<path d="M154.443,291.014C154.443,309.525 167.625,312.834 181.555,312.834C195.485,312.834 208.667,309.693 208.667,291.182C208.667,272.671 191.69,258.461 181.256,257.619C171.215,256.815 154.443,272.522 154.443,291.014Z" fill="#CCCF7A"/>
<path d="M159.082,295.184C159.082,308.908 168.861,311.357 179.182,311.357C189.504,311.357 199.283,309.02 199.283,295.296C199.283,281.571 186.68,271.026 178.958,270.409C171.516,269.81 159.082,281.459 159.082,295.184Z" fill="#BABA68"/>
<path d="M190.232,263.267C187.932,263.267 187.932,266.52 190.232,266.52C192.532,266.52 192.532,263.267 190.232,263.267Z" fill="#E3E5B0"/>
<path d="M177.404,268.296C175.834,268.296 175.329,269.811 175.908,270.764C176.769,270.521 177.61,270.39 178.395,270.39C178.582,270.39 178.769,270.39 178.956,270.409C178.975,270.409 179.012,270.409 179.031,270.409C179.33,269.474 178.788,268.277 177.386,268.277Z" fill="#E3E5B0"/>
<path d="M178.398,270.391C177.613,270.391 176.771,270.522 175.911,270.765C176.173,271.213 176.678,271.531 177.407,271.531C178.304,271.531 178.865,271.026 179.052,270.428C179.034,270.428 178.996,270.428 178.978,270.428C178.791,270.428 178.604,270.409 178.417,270.409Z" fill="#D9D9A3"/>
<path d="M189.166,285.144C186.866,285.144 186.866,288.378 189.166,288.378C191.466,288.378 191.466,285.144 189.166,285.144Z" fill="#D9D9A3"/>
<path d="M166.877,285.479C164.577,285.479 164.577,288.733 166.877,288.733C169.177,288.733 169.177,285.479 166.877,285.479Z" fill="#D9D9A3"/>
<path d="M168.449,302.569C168.804,303.392 169.104,304.233 169.347,305.112C169.982,304.271 169.683,302.869 168.449,302.569Z" fill="#D9D9A3"/>
<path d="M197.394,304.009C196.87,304.962 196.253,305.804 195.562,306.533C195.674,306.552 195.823,306.57 195.954,306.57C197.562,306.57 198.048,304.981 197.394,304.028Z" fill="#E3E5B0"/>
<path d="M195.936,303.317C193.767,303.317 193.655,306.178 195.543,306.533C196.235,305.804 196.852,304.963 197.375,304.009C197.095,303.598 196.609,303.317 195.936,303.317Z" fill="#D9D9A3"/>
<path d="M167.589,275.757C166.243,275.757 165.682,276.879 165.906,277.795C166.524,277.084 167.159,276.393 167.814,275.776C167.739,275.776 167.664,275.776 167.571,275.776Z" fill="#E3E5B0"/>
<path d="M167.833,275.757C167.179,276.393 166.543,277.066 165.926,277.776C166.094,278.431 166.655,278.992 167.609,278.992C169.834,278.992 169.908,275.981 167.852,275.757Z" fill="#D9D9A3"/>
<path d="M197.543,277.048C195.243,277.048 195.243,280.283 197.543,280.283C199.843,280.283 199.843,277.048 197.543,277.048Z" fill="#E3E5B0"/>
<path d="M181.145,263.416C179.986,263.416 179.986,265.043 181.145,265.043C182.304,265.043 182.285,263.416 181.145,263.416Z" fill="#E3E5B0"/>
<path d="M188.456,270.727C187.297,270.727 187.297,272.353 188.456,272.353C189.616,272.353 189.597,270.727 188.456,270.727Z" fill="#E3E5B0"/>
<path d="M169.199,267.155C168.039,267.155 168.039,268.782 169.199,268.782C170.358,268.782 170.339,267.155 169.199,267.155Z" fill="#E3E5B0"/>
<path d="M181.502,278.674C180.343,278.674 180.343,280.301 181.502,280.301C182.662,280.301 182.643,278.674 181.502,278.674Z" fill="#D9D9A3"/>
<path d="M198.084,268.445C196.925,268.445 196.925,270.072 198.084,270.072C199.244,270.072 199.225,268.445 198.084,268.445Z" fill="#E3E5B0"/>
<path d="M203.619,284.021C202.46,284.021 202.46,285.648 203.619,285.648C204.779,285.648 204.76,284.021 203.619,284.021Z" fill="#E3E5B0"/>
<path d="M196.478,291.313C195.319,291.313 195.319,292.94 196.478,292.94C197.637,292.94 197.618,291.313 196.478,291.313Z" fill="#D9D9A3"/>
<path d="M175.444,287.593C174.284,287.593 174.284,289.219 175.444,289.219C176.603,289.219 176.584,287.593 175.444,287.593Z" fill="#D9D9A3"/>
<path d="M158.129,283.199C156.97,283.199 156.97,284.826 158.129,284.826C159.288,284.826 159.27,283.199 158.129,283.199Z" fill="#E3E5B0"/>
<path d="M179.351,258.724C178.192,258.724 178.192,260.35 179.351,260.35C180.51,260.35 180.491,258.724 179.351,258.724Z" fill="#E3E5B0"/>
<path d="M186.139,296.175C184.98,296.175 184.98,297.802 186.139,297.802C187.298,297.802 187.298,296.175 186.139,296.175Z" fill="#D9D9A3"/>
<path d="M192.196,302.832C191.036,302.832 191.036,304.459 192.196,304.459C193.355,304.459 193.336,302.832 192.196,302.832Z" fill="#D9D9A3"/>
<path d="M205.211,298.287C204.052,298.287 204.052,299.914 205.211,299.914C206.371,299.914 206.352,298.287 205.211,298.287Z" fill="#E3E5B0"/>
<path d="M186.848,308.815C185.689,308.815 185.689,310.442 186.848,310.442C188.007,310.442 187.989,308.815 186.848,308.815Z" fill="#D9D9A3"/>
<path d="M176.36,311.302C176.51,311.47 176.734,311.582 177.033,311.582C177.314,311.582 177.52,311.489 177.669,311.358C177.239,311.358 176.809,311.339 176.379,311.302Z" fill="#E3E5B0"/>
<path d="M177.032,309.955C176.191,309.955 175.967,310.834 176.359,311.301C176.789,311.32 177.219,311.339 177.649,311.357C178.098,310.909 177.892,309.974 177.032,309.974Z" fill="#D9D9A3"/>
<path d="M164.728,293.426C163.569,293.426 163.569,295.053 164.728,295.053C165.887,295.053 165.868,293.426 164.728,293.426Z" fill="#D9D9A3"/>
<path d="M176.154,280.132C174.994,280.132 174.994,281.759 176.154,281.759C177.313,281.759 177.313,280.132 176.154,280.132Z" fill="#D9D9A3"/>
<path d="M198.442,285.629C197.282,285.629 197.282,287.256 198.442,287.256C199.601,287.256 199.582,285.629 198.442,285.629Z" fill="#E3E5B0"/>
<path d="M136.42,310.161C136.42,321.641 144.61,323.698 153.23,323.698C161.849,323.698 170.039,321.754 170.039,310.273C170.039,298.793 159.493,289.967 153.043,289.444C146.816,288.939 136.401,298.68 136.401,310.161Z" fill="#1C968A"/>
<path d="M139.3,312.742C139.3,321.25 145.377,322.783 151.771,322.783C158.166,322.783 164.243,321.343 164.243,312.817C164.243,304.291 156.427,297.765 151.64,297.372C147.022,296.998 139.3,304.234 139.3,312.742Z" fill="#098A78"/>
<path d="M158.632,292.939C157.211,292.939 157.211,294.959 158.632,294.959C160.053,294.959 160.053,292.939 158.632,292.939Z" fill="#5ABDB7"/>
<path d="M150.669,296.064C149.696,296.064 149.378,296.999 149.734,297.597C150.276,297.447 150.8,297.372 151.286,297.372C151.398,297.372 151.529,297.372 151.641,297.372C151.641,297.372 151.678,297.372 151.697,297.372C151.884,296.793 151.547,296.045 150.669,296.045Z" fill="#5ABDB7"/>
<path d="M151.284,297.372C150.798,297.372 150.275,297.447 149.732,297.596C149.901,297.877 150.2,298.083 150.667,298.083C151.228,298.083 151.565,297.765 151.696,297.391C151.696,297.391 151.658,297.391 151.64,297.391C151.527,297.391 151.415,297.391 151.284,297.391Z" fill="#2CB4AA"/>
<path d="M157.961,306.515C156.54,306.515 156.54,308.534 157.961,308.534C159.382,308.534 159.382,306.515 157.961,306.515Z" fill="#2CB4AA"/>
<path d="M144.141,306.722C142.72,306.722 142.72,308.741 144.141,308.741C145.562,308.741 145.562,306.722 144.141,306.722Z" fill="#2CB4AA"/>
<path d="M144.797,317.285C143.376,317.285 143.376,319.305 144.797,319.305C146.218,319.305 146.218,317.285 144.797,317.285Z" fill="#2CB4AA"/>
<path d="M163.064,318.22C162.747,318.818 162.354,319.323 161.924,319.79C161.999,319.79 162.073,319.809 162.167,319.809C163.177,319.809 163.457,318.818 163.064,318.22Z" fill="#5ABDB7"/>
<path d="M162.167,317.79C160.82,317.79 160.746,319.566 161.924,319.791C162.354,319.342 162.746,318.818 163.064,318.239C162.896,317.996 162.597,317.809 162.167,317.809Z" fill="#2CB4AA"/>
<path d="M144.572,300.682C143.73,300.682 143.394,301.373 143.524,301.953C143.898,301.504 144.31,301.093 144.702,300.7C144.646,300.7 144.609,300.7 144.553,300.7Z" fill="#5ABDB7"/>
<path d="M144.721,300.7C144.31,301.093 143.917,301.504 143.524,301.953C143.618,302.364 143.973,302.701 144.572,302.701C145.955,302.701 145.993,300.831 144.721,300.7Z" fill="#2CB4AA"/>
<path d="M163.159,301.484C161.738,301.484 161.738,303.504 163.159,303.504C164.58,303.504 164.58,301.484 163.159,301.484Z" fill="#5ABDB7"/>
<path d="M152.987,293.033C152.276,293.033 152.276,294.043 152.987,294.043C153.698,294.043 153.698,293.033 152.987,293.033Z" fill="#5ABDB7"/>
<path d="M157.529,297.578C156.818,297.578 156.818,298.588 157.529,298.588C158.24,298.588 158.24,297.578 157.529,297.578Z" fill="#5ABDB7"/>
<path d="M145.583,295.353C144.872,295.353 144.872,296.362 145.583,296.362C146.293,296.362 146.293,295.353 145.583,295.353Z" fill="#5ABDB7"/>
<path d="M153.212,302.494C152.501,302.494 152.501,303.504 153.212,303.504C153.922,303.504 153.922,302.494 153.212,302.494Z" fill="#2CB4AA"/>
<path d="M163.495,296.156C162.784,296.156 162.784,297.166 163.495,297.166C164.205,297.166 164.205,296.156 163.495,296.156Z" fill="#5ABDB7"/>
<path d="M166.935,305.823C166.225,305.823 166.225,306.833 166.935,306.833C167.646,306.833 167.646,305.823 166.935,305.823Z" fill="#5ABDB7"/>
<path d="M162.505,310.348C161.794,310.348 161.794,311.357 162.505,311.357C163.215,311.357 163.215,310.348 162.505,310.348Z" fill="#2CB4AA"/>
<path d="M149.451,308.029C148.74,308.029 148.74,309.039 149.451,309.039C150.161,309.039 150.161,308.029 149.451,308.029Z" fill="#2CB4AA"/>
<path d="M140.476,313.358C139.766,313.358 139.766,314.368 140.476,314.368C141.187,314.368 141.187,313.358 140.476,313.358Z" fill="#2CB4AA"/>
<path d="M138.72,305.318C138.01,305.318 138.01,306.328 138.72,306.328C139.431,306.328 139.431,305.318 138.72,305.318Z" fill="#5ABDB7"/>
<path d="M151.884,290.117C151.174,290.117 151.174,291.127 151.884,291.127C152.595,291.127 152.595,290.117 151.884,290.117Z" fill="#5ABDB7"/>
<path d="M156.091,313.358C155.381,313.358 155.381,314.368 156.091,314.368C156.802,314.368 156.802,313.358 156.091,313.358Z" fill="#2CB4AA"/>
<path d="M159.849,317.491C159.139,317.491 159.139,318.501 159.849,318.501C160.56,318.501 160.56,317.491 159.849,317.491Z" fill="#2CB4AA"/>
<path d="M167.927,314.668C167.217,314.668 167.217,315.678 167.927,315.678C168.638,315.678 168.638,314.668 167.927,314.668Z" fill="#5ABDB7"/>
<path d="M156.52,321.212C155.81,321.212 155.81,322.222 156.52,322.222C157.231,322.222 157.231,321.212 156.52,321.212Z" fill="#2CB4AA"/>
<path d="M150.033,322.745C150.127,322.857 150.258,322.914 150.445,322.914C150.613,322.914 150.744,322.857 150.837,322.764C150.575,322.764 150.295,322.764 150.033,322.727Z" fill="#5ABDB7"/>
<path d="M150.445,321.904C149.921,321.904 149.772,322.447 150.033,322.746C150.295,322.746 150.576,322.764 150.837,322.783C151.118,322.503 150.987,321.923 150.445,321.923Z" fill="#2CB4AA"/>
<path d="M142.814,311.656C142.104,311.656 142.104,312.666 142.814,312.666C143.525,312.666 143.525,311.656 142.814,311.656Z" fill="#2CB4AA"/>
<path d="M149.883,303.411C149.172,303.411 149.172,304.421 149.883,304.421C150.593,304.421 150.593,303.411 149.883,303.411Z" fill="#2CB4AA"/>
<path d="M163.72,306.814C163.01,306.814 163.01,307.824 163.72,307.824C164.431,307.824 164.431,306.814 163.72,306.814Z" fill="#5ABDB7"/>
<path d="M150.576,413.43L150.576,312.554C150.576,311.844 151.773,311.844 151.773,312.554L151.773,413.43L150.576,413.43Z" fill="#676150"/>
<path d="M147.153,314.387C148.668,317.435 150.164,320.483 151.678,323.53C151.996,324.166 150.949,324.727 150.631,324.091C149.117,321.044 147.621,317.996 146.106,314.948C145.788,314.312 146.835,313.751 147.153,314.387Z" fill="#676150"/>
<path d="M162.691,320.314C158.989,324.428 155.286,328.56 151.584,332.674C151.098,333.216 150.238,332.449 150.724,331.907C154.426,327.794 158.129,323.661 161.831,319.548C162.317,319.006 163.177,319.772 162.691,320.314Z" fill="#676150"/>
<path d="M191.729,413.43L191.729,312.554C191.729,311.844 192.925,311.844 192.925,312.554L192.925,413.43L191.729,413.43Z" fill="#676150"/>
<path d="M188.325,314.387C189.821,317.435 191.336,320.483 192.85,323.53C193.168,324.166 192.121,324.727 191.803,324.091C190.288,321.044 188.793,317.996 187.278,314.948C186.96,314.312 188.007,313.751 188.325,314.387Z" fill="#676150"/>
<path d="M203.864,320.314C200.162,324.428 196.459,328.56 192.757,332.674C192.271,333.216 191.411,332.449 191.897,331.907C195.599,327.794 199.301,323.661 203.004,319.548C203.49,319.006 204.35,319.772 203.864,320.314Z" fill="#676150"/>
<path d="M179.183,413.43L179.183,293.408C179.183,292.361 180.959,292.361 180.959,293.408L180.959,413.43L179.183,413.43Z" fill="#676150"/>
<path d="M191.167,293.838C187.727,300.438 184.286,307.039 180.846,313.62C180.36,314.574 178.808,313.751 179.313,312.798C182.753,306.197 186.193,299.616 189.634,293.015C190.12,292.08 191.653,292.903 191.167,293.838Z" fill="#676150"/>
<path d="M175.648,296.625C177.144,298.363 178.64,300.121 180.135,301.86C180.827,302.683 179.574,303.823 178.883,303.001C177.387,301.262 175.891,299.523 174.395,297.765C173.703,296.942 174.956,295.802 175.667,296.625Z" fill="#676150"/>
</svg>
