<svg width="32" height="38" viewBox="0 0 32 38" fill="none" xmlns="http://www.w3.org/2000/svg" xmlns:xlink="http://www.w3.org/1999/xlink">
<path d="M6.851,20.098C14.427,26.22 8.069,31.268 13.434,34.808C18.255,37.987 27.36,35.147 30.753,22.283C33.254,12.805 27.737,3.488 18.675,0.604C6.655,-3.216 -3.059,12.084 6.851,20.098ZM14.376,30.327C14.688,29.142 16.254,28.538 17.878,28.98C19.494,29.421 20.56,30.739 20.248,31.923C19.937,33.108 18.371,33.712 16.747,33.27C15.123,32.829 14.064,31.511 14.383,30.327L14.376,30.327Z" fill="#FDC00F"/>
<path d="M5.619,8.706C5.205,10.281 6.119,11.892 7.67,12.312C9.214,12.731 10.809,11.797 11.222,10.229C11.636,8.662 10.715,7.043 9.171,6.623C7.627,6.204 6.032,7.131 5.619,8.706Z" fill="#A2E2E8"/>
<path d="M11.607,4.577C11.194,6.145 12.107,7.764 13.658,8.183C15.203,8.603 16.798,7.676 17.211,6.101C17.624,4.533 16.703,2.914 15.159,2.495C13.608,2.075 12.02,3.003 11.607,4.577Z" fill="#184F78"/>
<path d="M18.733,6.903C18.32,8.477 19.233,10.089 20.785,10.509C22.329,10.928 23.924,10.001 24.337,8.426C24.75,6.858 23.83,5.24 22.285,4.82C20.741,4.401 19.146,5.335 18.733,6.903Z" fill="#D291BC"/>
<path d="M22.996,13.158C22.583,14.733 23.496,16.344 25.048,16.764C26.592,17.183 28.187,16.256 28.6,14.681C29.013,13.114 28.092,11.495 26.548,11.075C25.004,10.656 23.409,11.583 22.996,13.158Z" fill="#16B6C6"/>
<path d="M22.909,20.775C22.496,22.342 23.416,23.961 24.961,24.381C26.512,24.8 28.1,23.873 28.513,22.298C28.926,20.731 28.005,19.112 26.461,18.692C24.917,18.273 23.322,19.2 22.909,20.775Z" fill="#FFF2CF"/>
<g opacity="0.2">
<path d="M10.063,7.05C10.534,7.734 10.722,8.617 10.498,9.486C10.084,11.053 8.489,11.988 6.945,11.568C6.612,11.48 6.322,11.325 6.053,11.134C6.43,11.686 6.981,12.113 7.67,12.304C9.214,12.724 10.809,11.789 11.223,10.222C11.549,8.985 11.041,7.734 10.063,7.05Z" fill="#000000"/>
<path d="M27.875,13.945C27.462,15.513 25.867,16.447 24.323,16.028C23.989,15.939 23.699,15.785 23.431,15.601C23.808,16.153 24.359,16.58 25.048,16.764C26.592,17.183 28.187,16.256 28.6,14.681C28.926,13.445 28.419,12.194 27.44,11.509C27.911,12.194 28.107,13.077 27.875,13.945Z" fill="#000000"/>
<path d="M24.337,8.426C24.663,7.189 24.156,5.938 23.177,5.254C23.648,5.938 23.844,6.821 23.612,7.69C23.199,9.265 21.604,10.192 20.06,9.772C19.726,9.684 19.436,9.529 19.168,9.338C19.545,9.89 20.096,10.317 20.785,10.508C22.329,10.928 23.924,10 24.337,8.426Z" fill="#000000"/>
<path d="M16.051,2.929C16.522,3.613 16.71,4.496 16.486,5.365C16.073,6.932 14.478,7.867 12.933,7.447C12.6,7.359 12.31,7.204 12.042,7.013C12.419,7.565 12.97,7.992 13.658,8.183C15.203,8.602 16.797,7.675 17.211,6.1C17.537,4.864 17.029,3.613 16.051,2.929Z" fill="#000000"/>
<path d="M27.353,19.126C27.824,19.81 28.02,20.693 27.788,21.562C27.375,23.137 25.787,24.064 24.236,23.644C23.902,23.556 23.612,23.402 23.344,23.21C23.721,23.762 24.272,24.189 24.961,24.38C26.512,24.8 28.1,23.872 28.513,22.298C28.839,21.061 28.332,19.81 27.353,19.126Z" fill="#000000"/>
</g>
<path d="M5.705,22.18C3.059,26.838 1.827,31.15 2.958,31.813C4.089,32.475 7.155,29.237 9.802,24.579C12.448,19.92 13.68,15.608 12.549,14.946C11.418,14.283 8.352,17.521 5.705,22.172L5.705,22.18Z" fill="#184F78"/>
<path d="M1.544,31.282C1.834,31.091 2.139,30.892 2.407,30.922C5.763,31.363 3.799,36.743 0.428,35.911C0.13,35.838 0,35.72 0,35.727C0,35.727 0.145,35.617 0.29,35.411C0.442,35.205 0.5,34.91 0.471,34.609C0.457,34.307 0.391,33.954 0.391,33.534C0.391,33.137 0.435,32.6 0.812,32.033C1.037,31.731 1.29,31.466 1.551,31.275L1.544,31.282Z" fill="#D291BC"/>
<path d="M4.602,29.475L2.278,29.475L2.278,32.437L4.602,32.437L4.602,29.475Z" transform="rotate(-120.759 3.44 30.956)" fill="#A3B9C9"/>
<g opacity="0.3">
<path d="M0.391,35.897C0.471,35.823 0.558,35.742 0.638,35.676C0.674,35.654 0.71,35.632 0.747,35.602L0.703,35.573L2.494,32.423C3.139,29.575 4.778,25.587 7.148,21.422C8.475,19.089 9.867,16.992 11.201,15.24C9.736,16.182 7.612,18.802 5.698,22.165C4.183,24.829 3.139,27.375 2.726,29.193L1.58,31.202L1.609,31.217C1.609,31.217 1.559,31.246 1.537,31.261C1.276,31.459 1.022,31.717 0.797,32.019C0.42,32.585 0.377,33.122 0.377,33.52C0.377,33.939 0.442,34.293 0.457,34.594C0.486,34.896 0.428,35.19 0.275,35.396C0.138,35.602 -0.022,35.705 -0.015,35.713C-0.015,35.705 0.109,35.808 0.377,35.882L0.391,35.897Z" fill="#FFFFFF"/>
</g>
</svg>
