<svg width="38" height="40" viewBox="0 0 38 40" fill="none" xmlns="http://www.w3.org/2000/svg" xmlns:xlink="http://www.w3.org/1999/xlink">
<path d="M18.331,7.21C12.417,7.21 7.62,11.985 7.62,17.878C7.62,20.838 8.831,23.515 10.789,25.448C11.628,26.279 12.602,27.736 12.788,28.9L13.158,31.223L23.514,31.223L23.885,28.895C24.07,27.731 25.044,26.274 25.884,25.443C27.842,23.51 29.052,20.832 29.052,17.873C29.052,11.985 24.251,7.205 18.331,7.205L18.331,7.21Z" fill="#67E9F5"/>
<path d="M20.263,32.08C20.026,32.08 19.835,31.89 19.835,31.654C19.835,31.387 19.876,24.981 23.596,16.226C23.689,16.011 23.941,15.908 24.157,16.001C24.374,16.093 24.477,16.344 24.384,16.56C20.731,25.161 20.69,31.593 20.69,31.659C20.69,31.895 20.5,32.085 20.263,32.085L20.263,32.08Z" fill="#FDC00F"/>
<path d="M16.415,32.079C16.178,32.079 15.987,31.884 15.987,31.653C15.987,31.592 15.941,25.14 12.293,16.554C12.2,16.339 12.303,16.087 12.52,15.995C12.736,15.903 12.988,16.005 13.081,16.221C16.801,24.981 16.842,31.381 16.842,31.648C16.842,31.884 16.652,32.074 16.415,32.074L16.415,32.079Z" fill="#FDC00F"/>
<path d="M23.545,17.293C22.803,17.293 22.422,16.888 22.087,16.534C21.773,16.2 21.499,15.913 20.943,15.913C20.387,15.913 20.114,16.2 19.799,16.534C19.464,16.888 19.083,17.293 18.341,17.293C17.599,17.293 17.218,16.888 16.883,16.534C16.569,16.2 16.296,15.913 15.734,15.913C15.173,15.913 14.905,16.2 14.586,16.534C14.251,16.888 13.869,17.293 13.128,17.293C13.009,17.293 12.911,17.195 12.911,17.077C12.911,16.96 13.009,16.862 13.128,16.862C13.684,16.862 13.957,16.575 14.276,16.241C14.611,15.888 14.993,15.482 15.734,15.482C16.476,15.482 16.858,15.888 17.192,16.241C17.507,16.575 17.78,16.862 18.341,16.862C18.903,16.862 19.171,16.575 19.485,16.241C19.82,15.888 20.201,15.482 20.943,15.482C21.685,15.482 22.066,15.888 22.401,16.241C22.715,16.575 22.988,16.862 23.545,16.862C23.663,16.862 23.761,16.96 23.761,17.077C23.761,17.195 23.663,17.293 23.545,17.293Z" fill="#FDC00F"/>
<path d="M21.37,39.04L15.306,39.04C14.121,39.04 13.163,38.081 13.163,36.901L13.163,31.229L23.519,31.229L23.519,36.901C23.519,38.081 22.56,39.04 21.37,39.04Z" fill="#E1E1E1"/>
<path d="M13.158,35.91L13.158,36.9C13.158,37.1 13.194,37.29 13.246,37.474L23.426,37.474C23.478,37.29 23.514,37.1 23.514,36.9L23.514,35.91L13.158,35.91Z" fill="#6927FF"/>
<rect  x="13.158" y="32.787" width="10.355" height="1.564" fill="#6927FF"/>
<path d="M18.336,39.998C19.397,39.998 20.263,39.567 20.263,39.039L16.414,39.039C16.414,39.567 17.274,39.998 18.336,39.998Z" fill="#FDC00F"/>
<path d="M18.336,3.821C18.052,3.821 17.82,3.59 17.82,3.308L17.82,0.513C17.82,0.231 18.052,0 18.336,0C18.619,0 18.851,0.231 18.851,0.513L18.851,3.308C18.851,3.59 18.619,3.821 18.336,3.821Z" fill="#FDC00F"/>
<path d="M10.829,5.82C10.649,5.82 10.479,5.728 10.381,5.564L8.98,3.143C8.836,2.897 8.923,2.584 9.17,2.44C9.418,2.297 9.732,2.384 9.876,2.63L11.278,5.051C11.422,5.297 11.334,5.61 11.087,5.754C11.005,5.8 10.917,5.82 10.829,5.82Z" fill="#FDC00F"/>
<path d="M5.337,11.288C5.249,11.288 5.162,11.268 5.079,11.222L2.648,9.827C2.4,9.683 2.318,9.37 2.457,9.124C2.596,8.878 2.916,8.796 3.163,8.934L5.595,10.329C5.842,10.473 5.924,10.786 5.785,11.032C5.687,11.196 5.517,11.288 5.337,11.288Z" fill="#FDC00F"/>
<path d="M3.323,18.762L0.515,18.762C0.232,18.762 0,18.531 0,18.249C0,17.967 0.232,17.736 0.515,17.736L3.323,17.736C3.606,17.736 3.838,17.967 3.838,18.249C3.838,18.531 3.606,18.762 3.323,18.762Z" fill="#FDC00F"/>
<path d="M2.901,27.629C2.72,27.629 2.55,27.536 2.452,27.372C2.308,27.126 2.396,26.813 2.643,26.669L5.075,25.274C5.322,25.131 5.636,25.218 5.781,25.464C5.925,25.71 5.837,26.023 5.59,26.167L3.158,27.562C3.076,27.608 2.988,27.629 2.901,27.629Z" fill="#FDC00F"/>
<path d="M33.761,27.633C33.673,27.633 33.586,27.613 33.503,27.567L31.071,26.167C30.824,26.023 30.742,25.71 30.881,25.464C31.025,25.218 31.339,25.136 31.587,25.274L34.018,26.674C34.266,26.818 34.348,27.131 34.209,27.377C34.111,27.541 33.941,27.633 33.761,27.633Z" fill="#FDC00F"/>
<path d="M36.151,18.766L33.343,18.766C33.06,18.766 32.828,18.535 32.828,18.253C32.828,17.971 33.06,17.74 33.343,17.74L36.151,17.74C36.435,17.74 36.666,17.971 36.666,18.253C36.666,18.535 36.435,18.766 36.151,18.766Z" fill="#FDC00F"/>
<path d="M31.334,11.295C31.154,11.295 30.984,11.202 30.886,11.038C30.742,10.792 30.829,10.479 31.077,10.335L33.508,8.94C33.756,8.797 34.07,8.884 34.214,9.13C34.359,9.376 34.271,9.689 34.024,9.833L31.592,11.228C31.509,11.274 31.422,11.295 31.334,11.295Z" fill="#FDC00F"/>
<path d="M25.837,5.826C25.749,5.826 25.662,5.805 25.579,5.759C25.332,5.616 25.25,5.303 25.389,5.057L26.795,2.636C26.939,2.39 27.254,2.308 27.501,2.446C27.748,2.59 27.831,2.902 27.692,3.149L26.285,5.569C26.187,5.734 26.017,5.826 25.837,5.826Z" fill="#FDC00F"/>
<g opacity="0.3">
<path d="M10.005,17.828C11.71,19.526 14.822,19.182 16.955,17.054C19.088,14.931 19.438,11.833 17.733,10.135C16.028,8.437 12.916,8.786 10.783,10.91C8.65,13.033 8.3,16.131 10.005,17.828Z" fill="#FFFFFF"/>
</g>
<g opacity="0.3">
<path d="M17.475,20.721C18.114,21.357 19.279,21.229 20.077,20.434C20.876,19.639 21.005,18.48 20.366,17.844C19.727,17.208 18.562,17.336 17.764,18.131C16.965,18.926 16.837,20.085 17.475,20.721Z" fill="#FFFFFF"/>
</g>
<g opacity="0.2">
<path d="M13.673,31.656L22.998,31.656C23.282,31.656 23.514,31.466 23.514,31.23L13.158,31.23C13.158,31.23 13.39,31.656 13.673,31.656Z" fill="#272930"/>
</g>
<g opacity="0.2">
<path d="M16.625,39.467L20.051,39.467C20.18,39.338 20.263,39.195 20.263,39.041L16.414,39.041C16.414,39.195 16.496,39.338 16.625,39.467Z" fill="#272930"/>
</g>
</svg>
