<svg width="27" height="33" viewBox="0 0 27 33" fill="none" xmlns="http://www.w3.org/2000/svg">
<g opacity="0.8">
<mask id="mask0_154_3550" style="mask-type:luminance" maskUnits="userSpaceOnUse" x="-5" y="-3" width="37" height="36">
<path d="M13.2173 32.9999C23.0942 32.9999 31.101 25.0679 31.101 15.2833C31.101 5.49861 23.0942 -2.43342 13.2173 -2.43342C3.34043 -2.43342 -4.66637 5.49861 -4.66637 15.2833C-4.66637 25.0679 3.34043 32.9999 13.2173 32.9999Z" fill="white"/>
</mask>
<g mask="url(#mask0_154_3550)">
<path d="M6.30972 41.0099L6.03727 39.8629C6.03531 39.5266 6.05635 39.1903 6.09939 38.8569C6.44375 36.1937 7.0229 33.6646 7.91217 31.3135L6.10575 30.2629C5.45861 32.6146 4.92886 37.2515 4.76842 38.7488C4.73516 39.0595 4.71951 39.371 4.72146 39.6831C4.63146 40.6305 4.33357 41.4702 4.38689 42.0401C4.39814 42.1593 4.4539 42.2712 4.54342 42.357L4.9 42.7006C4.96751 42.9937 5.13333 43.1658 5.48062 43.113C5.61611 43.3237 5.74231 43.5001 5.86558 43.5515C5.90226 43.5665 5.94286 43.5408 5.93797 43.504C5.89395 43.159 5.68655 41.51 5.75943 41.5012C6.00499 41.4727 6.02553 42.421 6.22021 42.3972C6.37918 42.3779 6.35521 41.5371 6.34054 41.2265C6.33712 41.1533 6.32684 41.0811 6.31021 41.0094L6.30972 41.0099Z" fill="#FBD3A8"/>
<path d="M20.0937 41.0099L20.3662 39.8629C20.3681 39.5266 20.3471 39.1903 20.3041 38.8569C19.9597 36.1937 19.3806 33.6646 18.4913 31.3135L20.2977 30.2629C20.9449 32.6146 21.4746 37.2515 21.635 38.7488C21.6683 39.0595 21.684 39.371 21.682 39.6831C21.772 40.6305 22.0699 41.4702 22.0166 42.0401C22.0053 42.1593 21.9496 42.2712 21.86 42.357L21.5035 42.7006C21.436 42.9937 21.2701 43.1658 20.9228 43.113C20.7873 43.3237 20.6611 43.5001 20.5379 43.5515C20.5012 43.5665 20.4606 43.5408 20.4655 43.504C20.5095 43.159 20.7169 41.51 20.644 41.5012C20.3985 41.4727 20.3779 42.421 20.1833 42.3972C20.0243 42.3779 20.0482 41.5371 20.0629 41.2265C20.0663 41.1533 20.0766 41.0811 20.0932 41.0094L20.0937 41.0099Z" fill="#FBD3A8"/>
<path d="M14.9406 23.7759H11.4256C11.4549 25.1894 11.2563 26.0796 11.047 26.6364C10.9682 26.8462 11.0303 27.0822 11.1991 27.2315C11.967 27.9113 14.2602 28.1551 15.1939 27.1578C15.3338 27.0081 15.3764 26.7934 15.3064 26.6015C15.102 26.0428 14.9117 25.1599 14.9406 23.7754V23.7759Z" fill="#FBD3A8"/>
<path opacity="0.35" d="M11.5383 23.966L14.8532 23.9883L14.9095 24.9453C14.3831 25.7129 11.8347 25.6804 11.4429 24.9095L11.5383 23.9665V23.966Z" fill="#F8A364"/>
<path d="M5.45807 20.1294C3.94367 20.1294 2.9776 18.1325 3.44816 16.8435C3.56164 16.5319 3.78665 16.2664 4.09384 16.136C4.64168 15.9034 5.13572 16.1898 5.45807 16.4035V20.1294Z" fill="#FBD3A8"/>
<path d="M4.9318 19.3143C3.98481 19.1146 3.57148 16.8357 4.7469 16.9854L5.4185 17.06V19.3972L4.9318 19.3138V19.3143Z" fill="#FBBD89"/>
<path d="M5.38808 17.1552C5.23694 17.1009 5.08286 17.0534 4.92584 17.0272C4.77029 17.0044 4.60838 16.9986 4.46408 17.051C4.32028 17.1018 4.19995 17.2148 4.13391 17.3611C4.0669 17.507 4.03951 17.6712 4.02874 17.835C4.02287 17.6712 4.03266 17.5036 4.08695 17.3422C4.13929 17.1813 4.26158 17.035 4.42446 16.9589C4.58735 16.8809 4.76931 16.8702 4.94149 16.8785C5.11465 16.8901 5.28292 16.924 5.44874 16.9652L5.38759 17.1552H5.38808Z" fill="#603813"/>
<path d="M20.9582 20.1294C22.4726 20.1294 23.4387 18.1325 22.9681 16.8435C22.8546 16.5319 22.6296 16.2664 22.3224 16.136C21.7746 15.9034 21.2806 16.1898 20.9582 16.4035V20.1294Z" fill="#FBD3A8"/>
<path d="M21.4839 19.3143C22.4308 19.1146 22.8437 16.8357 21.6688 16.9854L20.9972 17.06V19.3972L21.4839 19.3138V19.3143Z" fill="#FBBD89"/>
<path d="M20.9666 16.965C21.1325 16.9238 21.3007 16.8894 21.4739 16.8782C21.6461 16.8705 21.828 16.8812 21.9909 16.9587C22.1538 17.0348 22.2761 17.1816 22.3284 17.342C22.3832 17.5029 22.3925 17.6705 22.3866 17.8348C22.3759 17.671 22.3485 17.5067 22.2815 17.3609C22.2154 17.2145 22.0956 17.1016 21.9513 17.0508C21.807 16.9984 21.6451 17.0042 21.4895 17.027C21.3325 17.0532 21.1789 17.1012 21.0273 17.1549L20.9661 16.965H20.9666Z" fill="#603813"/>
<path d="M20.9778 8.98406C15.7874 4.58651 10.6421 4.60686 5.54031 8.98406C3.44579 18.4372 4.9504 24.6534 13.1534 24.8482H13.3652C21.5677 24.6534 23.0728 18.4367 20.9783 8.98406H20.9778Z" fill="#FBD3A8"/>
<path d="M13.1014 19.1881C13.1347 19.1944 13.1674 19.1872 13.1997 19.1775C13.7965 19.004 13.8831 19.6669 13.4027 19.727C12.9444 19.7687 12.7032 19.6151 12.5555 19.4183C12.4748 19.3107 12.5374 19.1503 12.6719 19.1334C12.7923 19.1179 12.9493 19.1576 13.1014 19.1877V19.1881Z" fill="#F8A364"/>
<path d="M10.0111 18.125C10.3906 18.125 10.6983 17.6384 10.6983 17.0381C10.6983 16.4378 10.3906 15.9512 10.0111 15.9512C9.63149 15.9512 9.3238 16.4378 9.3238 17.0381C9.3238 17.6384 9.63149 18.125 10.0111 18.125Z" fill="#4D4E4E"/>
<path d="M10.081 16.9821C10.2507 16.9821 10.3882 16.8135 10.3882 16.6056C10.3882 16.3976 10.2507 16.2291 10.081 16.2291C9.91139 16.2291 9.77386 16.3976 9.77386 16.6056C9.77386 16.8135 9.91139 16.9821 10.081 16.9821Z" fill="white"/>
<path d="M16.2864 18.125C16.6659 18.125 16.9736 17.6384 16.9736 17.0381C16.9736 16.4378 16.6659 15.9512 16.2864 15.9512C15.9068 15.9512 15.5991 16.4378 15.5991 17.0381C15.5991 17.6384 15.9068 18.125 16.2864 18.125Z" fill="#4D4E4E"/>
<path d="M15.9088 16.6056C15.9088 16.8135 16.0462 16.9821 16.2159 16.9821C16.3857 16.9821 16.5231 16.8135 16.5231 16.6056C16.5231 16.3977 16.3857 16.2291 16.2159 16.2291C16.0462 16.2291 15.9088 16.3977 15.9088 16.6056Z" fill="white"/>
<path d="M11.203 21.2343C11.5449 21.3012 11.877 21.3705 12.2101 21.419C12.5432 21.4655 12.8749 21.495 13.207 21.4979C13.5391 21.5018 13.8708 21.479 14.2039 21.4369C14.537 21.3928 14.8691 21.3254 15.2105 21.2566C14.9165 21.4422 14.5908 21.5774 14.2513 21.6675C13.9123 21.7601 13.5577 21.8032 13.204 21.7994C12.8504 21.795 12.4977 21.7446 12.1607 21.6477C11.8232 21.5532 11.4989 21.417 11.2034 21.2339L11.203 21.2343Z" fill="#F8A364"/>
<path d="M12.2663 22.1613C12.4361 22.1666 12.5989 22.1802 12.7604 22.1903C12.9223 22.201 13.0822 22.2078 13.2422 22.2121C13.4021 22.216 13.5626 22.2175 13.7245 22.2155C13.8864 22.2136 14.0497 22.2087 14.2195 22.2126C14.0683 22.2902 13.9064 22.3396 13.7406 22.3716C13.5748 22.4031 13.4055 22.4181 13.2363 22.4128C13.067 22.4084 12.8988 22.3851 12.7349 22.3444C12.5715 22.3037 12.4121 22.2461 12.2653 22.1608L12.2663 22.1613Z" fill="#F8A364"/>
<path d="M19.2031 28.0186C18.8416 27.2869 18.1974 26.7306 17.4157 26.4762L15.0703 25.7077C14.6672 26.6274 14.2275 27.1958 13.1773 27.207C12.1271 27.1958 11.6981 26.6274 11.2955 25.7077L8.93881 26.4762C8.15765 26.7301 7.51295 27.2864 7.15147 28.0186L5.4737 31.418L7.67486 32.2732L8.49614 40.2198H17.8579L18.6405 32.2732L20.8803 31.418L19.2026 28.0186H19.2031Z" fill="#255A9E"/>
<path d="M8.53665 21.2077C9.19743 21.2077 9.7331 20.677 9.7331 20.0224C9.7331 19.3678 9.19743 18.8372 8.53665 18.8372C7.87587 18.8372 7.3402 19.3678 7.3402 20.0224C7.3402 20.677 7.87587 21.2077 8.53665 21.2077Z" fill="#EF8971"/>
<path d="M18.2919 21.2077C18.9527 21.2077 19.4884 20.677 19.4884 20.0224C19.4884 19.3678 18.9527 18.8372 18.2919 18.8372C17.6311 18.8372 17.0955 19.3678 17.0955 20.0224C17.0955 20.677 17.6311 21.2077 18.2919 21.2077Z" fill="#EF8971"/>
<path d="M15.9815 15.3077C15.3935 15.3188 15.1705 14.7596 15.5804 14.4194C15.7511 14.2775 15.9854 14.2455 16.207 14.2692C16.8175 14.3342 17.1956 14.5483 17.2631 14.9622C17.2875 15.1114 17.2445 15.2679 17.132 15.3702C16.9172 15.565 16.5832 15.4904 16.2192 15.3479C16.1439 15.3183 16.0627 15.3072 15.9815 15.3086V15.3077Z" fill="#4D4E4E"/>
<path d="M10.1069 15.3077C10.6948 15.3188 10.9179 14.7596 10.508 14.4194C10.3372 14.2775 10.1029 14.2455 9.88136 14.2692C9.2709 14.3342 8.89279 14.5483 8.82529 14.9622C8.80083 15.1114 8.84388 15.2679 8.95638 15.3702C9.17112 15.565 9.50521 15.4904 9.86913 15.3479C9.94446 15.3183 10.0257 15.3072 10.1069 15.3086V15.3077Z" fill="#4D4E4E"/>
<path d="M18.8788 40.2197C18.8788 40.2197 18.691 37.647 18.6411 32.2731C17.0342 32.2542 17.1726 29.432 17.0983 26.3753L16.3269 26.1344C16.4492 29.0007 15.3877 30.5073 13.1582 30.672C10.9287 30.5073 9.86724 29.0007 9.98953 26.1344L9.21814 26.4039C9.1433 29.4606 9.28222 32.2542 7.67537 32.2731C7.62499 37.6466 7.36526 40.2197 7.36526 40.2197C10.7829 41.6211 16.0251 41.4568 18.8788 40.2197Z" fill="#1A4C82"/>
<path d="M25.1163 8.32101C25.4617 7.09745 25.2968 6.01781 24.2804 5.17949C24.7661 4.29562 24.3117 3.41078 22.5312 2.51092C21.7153 1.23696 20.7864 1.06736 19.8301 1.16379C18.2688 -0.0956329 17.1129 -0.223562 16.2031 0.334673H15.5858C14.5963 -0.114531 13.8141 -0.12713 13.2849 0.391853C12.7556 -0.12713 11.9735 -0.114531 10.9839 0.334673H10.3666C9.45679 -0.223562 8.30143 -0.0956329 6.73959 1.16379C5.7833 1.06736 4.85442 1.23696 4.03852 2.51092C2.25803 3.41078 1.80361 4.29562 2.28933 5.17949C1.27289 6.01781 1.10804 7.09745 1.45338 8.32101C-0.542337 10.0757 -0.362331 11.3496 1.26066 12.3047C0.971082 13.694 1.19218 14.7732 2.13525 15.4138C2.34461 16.2943 2.83375 16.8036 3.52443 17.0458C3.93776 18.1405 4.4313 19.0224 5.14497 19.3258C5.38465 18.8708 5.44922 18.4075 5.26041 17.9321C5.21638 17.8207 5.14595 17.7233 5.07991 17.6235C5.02757 17.545 5.01241 17.4393 5.02904 17.3109C5.05594 17.1006 5.16209 16.9077 5.30737 16.7536C6.01223 16.0059 6.26365 15.1235 5.40226 13.9106C6.16093 13.2177 6.14772 13.0001 5.71091 12.1036C6.45686 12.2723 7.63766 11.4955 7.28009 10.7303C8.50198 10.601 9.0645 9.79122 8.87471 8.89088C9.6593 9.35704 10.4801 8.99167 10.4439 8.26916C11.1996 8.57832 12.6724 9.15546 13.2849 8.47947C13.8973 9.15497 15.3701 8.57832 16.1258 8.26916C16.0896 8.99167 16.9104 9.35752 17.695 8.89088C17.5057 9.79122 18.0677 10.601 19.2896 10.7303C18.9321 11.4955 20.1129 12.2718 20.8588 12.1036C20.422 13.0001 20.4088 13.2177 21.1675 13.9106C20.3066 15.1235 20.558 16.0059 21.2623 16.7536C21.4076 16.9077 21.5133 17.1006 21.5407 17.3109C21.5573 17.4393 21.5416 17.5445 21.4898 17.6235C21.4238 17.7233 21.3533 17.8212 21.3093 17.9321C21.121 18.4075 21.1855 18.8708 21.4247 19.3258C22.1379 19.0224 22.632 18.14 23.0453 17.0458C23.7355 16.8031 24.2251 16.2943 24.4345 15.4138C25.3775 14.7727 25.5986 13.694 25.3091 12.3047C26.9316 11.3496 27.112 10.0757 25.1163 8.32101Z" fill="#333333"/>
</g>
</g>
</svg>
