<svg width="36" height="36" viewBox="0 0 36 36" fill="none" xmlns="http://www.w3.org/2000/svg">
<rect x="0.5" y="0.5" width="35" height="35" rx="17.5" fill="#82B5CA" fill-opacity="0.05" stroke="#82B5CA"/>
<path d="M9.6001 22.6684L11.3944 27.7304C11.4578 27.9112 11.6593 28.028 11.8458 27.9941L17.0832 27.0299L18.2918 24.9169L10.8087 20.5518L9.6001 22.6647V22.6684Z" fill="#FEDFD2"/>
<path d="M12.8417 25.7224C12.1814 25.3382 11.3794 25.3683 10.6855 25.7299L11.3943 27.7298C11.4577 27.9106 11.6592 28.0274 11.8457 27.9935L13.9123 27.6131C13.875 26.8259 13.5057 26.1103 12.8417 25.7261V25.7224Z" fill="#6927FF"/>
<path d="M12.7038 22.3031L9.6001 22.6684L16.117 11.2715L18.2881 12.537L12.7038 22.3031Z" fill="#FDC00F"/>
<path d="M15.8451 24.1337L13.342 24.8493L12.7041 22.3032L18.2884 12.5371L21.4294 14.3676L15.8451 24.1337Z" fill="#FD814C"/>
<path d="M17.0832 27.0296L15.8447 24.1333L21.4291 14.3672L23.6001 15.6327L17.0832 27.0296Z" fill="#FDA079"/>
<path d="M16.7424 10.1726L16.1157 11.2686L23.601 15.6319L24.2277 14.5359L16.7424 10.1726Z" fill="#D1DCE4"/>
<path d="M24.984 11.7085L18.7916 8.10032C18.4335 7.89317 17.9784 8.01746 17.7732 8.37526L16.7437 10.1756L24.2267 14.537L25.2563 12.7367C25.4615 12.3751 25.3384 11.9156 24.984 11.7085Z" fill="#6927FF"/>
</svg>
